<?xml version="1.0" standalone="no"?>
<!DOCTYPE svg PUBLIC "-//W3C//DTD SVG 20010904//EN"
 "http://www.w3.org/TR/2001/REC-SVG-20010904/DTD/svg10.dtd">
<svg version="1.0" xmlns="http://www.w3.org/2000/svg"
 width="1241.000000pt" height="1241.000000pt" viewBox="0 0 1241.000000 1241.000000"
 preserveAspectRatio="xMidYMid meet">

<g transform="translate(0.000000,1241.000000) scale(0.100000,-0.100000)"
fill="#000000" stroke="none">
<path d="M5775 12099 c-1424 -105 -2745 -709 -3750 -1714 -902 -903 -1484
-2062 -1669 -3325 -45 -304 -51 -405 -51 -845 0 -451 7 -567 56 -895 229
-1530 1064 -2920 2314 -3851 1893 -1410 4469 -1554 6502 -363 1243 728 2175
1877 2628 3238 437 1313 396 2767 -115 4046 -352 882 -899 1651 -1630 2290
-374 328 -763 586 -1225 815 -706 350 -1437 548 -2227 605 -168 11 -669 11
-833 -1z m-466 -744 c111 -27 188 -71 276 -160 127 -126 181 -260 173 -425 -3
-72 -9 -94 -32 -133 -34 -59 -85 -93 -157 -108 -111 -22 -225 26 -270 113 -49
96 -19 264 55 309 64 39 155 15 196 -53 39 -65 34 -68 -100 -68 l-120 0 0 -60
0 -60 205 0 205 0 0 44 c0 60 -33 162 -71 219 -74 113 -213 157 -350 112 -72
-24 -158 -109 -182 -180 -37 -107 -32 -202 15 -302 65 -140 262 -242 414 -215
l59 10 -56 -52 c-144 -134 -349 -186 -543 -136 -110 28 -190 74 -272 155 -182
181 -224 448 -108 685 70 141 227 267 380 304 79 19 204 19 283 1z m2401 -267
c40 -15 89 -56 107 -91 14 -26 18 -73 24 -272 4 -132 10 -250 14 -262 7 -23 6
-23 -73 -23 -76 0 -80 1 -86 24 l-6 25 -55 -29 c-69 -36 -134 -46 -204 -32
-110 23 -171 92 -171 194 0 61 21 103 72 141 45 35 77 46 167 58 138 18 181
45 169 105 -6 30 -52 56 -102 56 -57 1 -97 -24 -111 -70 l-9 -32 -73 0 -73 0
0 33 c1 47 33 111 71 140 34 25 85 43 144 51 42 5 165 -5 195 -16z m-1329 -20
c97 -51 164 -166 171 -294 l3 -59 -202 -3 -203 -2 0 60 0 60 115 0 c111 0 115
1 115 21 0 64 -81 126 -153 116 -88 -12 -132 -78 -132 -197 1 -139 67 -218
176 -208 53 5 82 25 105 70 14 27 17 28 94 28 76 0 80 -1 80 -22 0 -37 -58
-126 -102 -158 -160 -116 -390 -58 -486 123 -25 48 -27 61 -27 162 0 101 2
114 27 162 39 74 81 118 140 147 43 22 66 26 134 26 73 0 89 -4 145 -32z m677
-3 c58 -32 96 -83 107 -147 l7 -38 -69 0 -70 0 -16 40 c-24 63 -98 87 -172 56
-62 -26 -70 -83 -16 -111 16 -8 59 -19 97 -25 156 -24 213 -53 245 -124 52
-116 -22 -255 -153 -287 -71 -17 -203 -7 -254 19 -68 35 -134 124 -134 182 0
18 6 20 73 20 l73 0 13 -36 c17 -47 62 -74 124 -74 78 0 117 28 117 84 0 38
-31 55 -141 77 -181 37 -245 88 -243 199 1 87 37 139 124 180 38 17 60 20 140
17 83 -2 102 -7 148 -32z m-3455 -1002 c50 -25 144 -69 208 -97 l116 -52 -196
-73 c-283 -106 -560 -226 -849 -367 l-254 -124 83 91 c141 154 393 382 584
526 112 84 197 143 207 143 5 0 50 -21 101 -47z m5274 1 c-3 -3 -12 -4 -19 -1
-8 3 -5 6 6 6 11 1 17 -2 13 -5z m-77 -195 c305 -38 400 -57 439 -87 20 -15
104 -94 186 -175 117 -116 144 -147 123 -143 -79 17 -392 68 -528 86 -325 42
-497 52 -965 58 -253 3 -451 7 -440 9 138 27 642 188 790 252 65 28 76 30 155
25 47 -3 155 -14 240 -25z m-4245 -179 c37 -12 50 -19 35 -19 -33 -1 -98 17
-105 29 -9 14 2 12 70 -10z m775 -170 c157 -24 379 -47 535 -55 66 -3 163 -8
215 -11 l95 -6 -161 -33 c-1108 -228 -2084 -637 -2931 -1228 -1122 -782 -1591
-1710 -1348 -2665 105 -415 330 -755 695 -1048 120 -97 384 -273 394 -263 9 9
176 369 176 378 0 6 -10 16 -22 22 -101 53 -365 284 -505 442 -159 179 -282
409 -348 649 -23 86 -55 245 -55 274 0 8 39 13 113 16 119 5 186 25 235 71 38
35 74 116 79 178 l6 57 21 -20 c41 -39 107 -61 197 -66 l86 -4 6 -157 c11
-283 82 -492 245 -719 65 -91 179 -220 231 -261 l37 -29 139 177 140 178 206
156 207 156 -39 78 c-45 90 -85 237 -95 347 l-7 76 52 0 51 0 0 251 0 251 60
117 c34 64 91 159 128 211 62 87 262 302 340 363 l33 27 -55 127 c-31 69 -56
137 -56 150 0 39 191 340 275 431 42 46 74 86 72 88 -7 7 -208 -81 -385 -168
-435 -215 -855 -521 -1067 -777 l-50 -60 -107 0 -108 -1 0 -152 c0 -84 -4
-159 -9 -167 -7 -11 -17 -7 -49 18 -69 56 -104 61 -414 61 -153 0 -278 3 -278
8 0 16 149 226 228 320 405 489 1128 961 2022 1319 1334 535 2794 697 4169
463 458 -79 950 -214 1371 -377 74 -29 75 -29 122 -108 97 -160 347 -679 334
-692 -2 -2 -45 22 -97 52 -341 202 -804 393 -1254 515 -192 52 -540 122 -765
154 -167 24 -472 56 -478 51 -4 -3 126 -553 133 -565 2 -4 33 -13 67 -19 136
-26 432 -106 600 -162 303 -101 494 -190 704 -327 93 -60 118 -72 152 -72 23
0 152 -13 286 -30 l244 -30 428 -156 429 -156 200 -121 c110 -66 210 -129 222
-141 13 -12 78 -158 154 -341 l131 -320 -57 -285 c-31 -157 -60 -296 -64 -310
-5 -14 -125 -187 -267 -385 -143 -198 -307 -426 -364 -507 l-105 -147 -393
-318 -394 -318 -940 -448 -940 -447 -576 -185 -577 -184 -980 -111 c-837 -95
-994 -111 -1075 -106 -52 4 -304 8 -560 10 -536 4 -765 21 -1194 86 -152 24
-138 15 -369 239 -236 231 -429 460 -606 721 -94 139 -206 322 -250 408 l-21
41 78 -53 c119 -82 259 -161 425 -241 155 -75 396 -170 405 -160 5 5 -14 252
-24 310 -5 28 -13 33 -142 80 -298 109 -697 333 -902 507 l-75 64 -58 169
c-193 562 -280 1173 -249 1753 12 219 38 458 66 610 19 102 107 243 317 511
108 137 468 498 629 631 525 435 1172 808 1897 1096 355 141 770 277 823 269
19 -3 91 -14 160 -25z m-2822 -926 c12 -8 22 -20 22 -26 0 -15 -84 -95 -213
-202 -113 -94 -483 -465 -577 -578 -30 -37 -56 -65 -58 -64 -4 5 79 226 133
350 109 256 136 292 300 409 166 118 314 160 393 111z m802 -1544 l0 -80 -85
0 -85 0 0 80 0 80 85 0 85 0 0 -80z m-890 -473 c0 -356 -6 -400 -57 -449 -44
-42 -74 -48 -229 -48 l-144 0 0 75 0 75 109 0 c120 0 144 10 157 63 l6 27 -89
0 c-114 0 -166 23 -203 90 -24 43 -25 53 -25 200 0 151 1 156 27 201 26 44 61
69 113 82 11 3 91 5 178 6 l157 1 0 -323z m494 298 c48 -24 74 -58 86 -111 5
-21 10 -135 10 -251 l0 -213 -180 0 c-161 0 -185 2 -220 20 -102 52 -107 232
-7 298 35 24 51 27 144 30 l105 4 -6 32 c-11 54 -25 61 -151 65 l-115 3 0 75
0 75 148 -4 c121 -3 154 -7 186 -23z m394 -277 l2 -298 -85 0 -85 0 0 293 c0
162 3 297 7 301 4 4 41 5 83 4 l75 -3 3 -297z m499 274 c29 -15 50 -36 65 -65
21 -39 22 -58 26 -274 l4 -233 -183 0 c-203 0 -232 7 -273 63 -30 41 -30 173
0 214 37 51 97 73 196 73 l88 0 0 28 c0 57 -34 72 -166 72 l-94 0 0 76 0 76
148 -4 c126 -4 153 -7 189 -26z m5951 -3714 c-440 -511 -931 -894 -1513 -1182
-543 -269 -1099 -423 -1720 -476 -154 -13 -585 -13 -740 0 -747 64 -1434 283
-2057 657 -137 82 -351 224 -346 228 2 2 41 -4 88 -11 200 -33 501 -66 760
-84 251 -18 845 -24 1170 -11 358 14 401 18 750 73 320 50 506 58 575 23 70
-35 55 -74 -47 -126 -165 -83 -658 -189 -1238 -264 -222 -29 -253 -36 -244
-59 15 -40 168 -81 365 -97 391 -33 1318 126 2059 353 699 214 1300 495 2048
958 70 43 131 78 135 79 5 1 -15 -27 -45 -61z"/>
<path d="M4820 10820 c-25 -25 -26 -72 -2 -93 41 -37 112 -6 112 48 0 32 -33
65 -65 65 -14 0 -34 -9 -45 -20z"/>
<path d="M7660 10751 c-8 -5 -50 -16 -93 -25 -127 -28 -173 -91 -112 -151 46
-47 162 -26 207 36 25 33 23 153 -2 140z"/>
<path d="M7155 8958 c-179 -20 -510 -71 -670 -103 -174 -35 -424 -100 -437
-113 -5 -5 15 -75 42 -157 28 -82 50 -152 50 -156 0 -4 -9 -9 -19 -12 -17 -4
-26 15 -73 149 -34 98 -58 154 -67 154 -54 0 -557 -238 -846 -400 -182 -102
-224 -136 -321 -257 l-26 -32 53 -61 53 -60 238 0 238 0 387 95 388 94 410
158 410 158 220 153 220 153 22 97 c12 53 19 100 15 103 -9 8 -177 49 -194 48
-7 -1 -49 -6 -93 -11z"/>
<path d="M7471 8802 l-23 -109 -232 -160 -231 -160 -420 -161 -420 -162 -393
-95 -393 -95 -239 0 -238 0 -65 70 c-49 54 -66 68 -74 58 -6 -7 -40 -61 -75
-119 l-65 -106 62 -86 c33 -48 64 -89 67 -92 3 -3 129 -10 281 -15 l276 -10
464 109 463 109 470 193 469 192 276 195 276 196 22 100 c12 56 24 108 27 117
3 11 -29 31 -123 77 -71 34 -130 62 -133 62 -3 0 -16 -49 -29 -108z"/>
<path d="M7797 8745 c-3 -11 -15 -65 -28 -120 l-21 -100 -281 -199 -282 -200
-480 -197 -480 -197 -470 -109 -470 -110 -200 8 c-110 4 -239 8 -287 8 l-86 1
-69 96 c-37 53 -69 90 -71 82 -2 -8 135 -333 304 -722 267 -617 304 -709 291
-719 -14 -11 -4 -44 81 -281 l97 -269 185 -118 c102 -66 192 -121 200 -124 40
-11 482 -85 511 -85 19 0 187 29 374 64 l340 63 435 192 435 192 211 199 210
198 73 174 73 173 -99 325 c-87 281 -103 325 -121 328 -12 2 -23 13 -27 30 -4
15 -81 340 -171 722 -90 382 -166 700 -168 705 -1 6 -6 1 -9 -10z m-257 -953
c17 -14 44 -98 131 -407 59 -215 109 -404 109 -422 0 -27 -14 -44 -102 -126
l-101 -94 -426 -180 -426 -181 -282 -61 c-155 -34 -297 -61 -316 -61 -21 0
-41 7 -52 20 -9 10 -82 200 -161 420 -141 392 -144 402 -130 435 17 40 -7 32
353 115 l258 60 455 186 c441 181 457 188 534 250 85 69 116 78 156 46z"/>
<path d="M7401 7701 c-70 -56 -102 -71 -540 -250 l-466 -190 -245 -56 c-314
-71 -317 -72 -324 -91 -8 -20 272 -801 290 -808 7 -3 145 23 306 58 l293 64
405 171 c223 95 421 183 440 197 19 13 68 55 108 92 l73 67 -99 360 c-55 198
-105 379 -111 403 -16 58 -39 55 -130 -17z"/>
<path d="M8200 7673 c0 -5 12 -59 26 -121 27 -111 27 -113 53 -108 14 3 103
12 196 21 94 9 190 18 215 22 l45 6 -75 34 c-79 37 -417 153 -444 153 -9 0
-16 -3 -16 -7z"/>
<path d="M9460 7403 c-43 -5 -1040 -660 -1040 -683 0 -8 4 -20 8 -26 4 -7 200
110 552 330 300 188 561 351 580 363 l35 23 -50 -2 c-27 -1 -66 -3 -85 -5z"/>
<path d="M9062 7020 l-617 -385 -6 -40 c-3 -22 -9 -83 -12 -136 l-6 -97 742
495 c408 273 748 501 755 507 10 10 -16 16 -113 27 l-126 15 -617 -386z"/>
<path d="M8943 7371 l-232 -16 -171 -230 c-93 -126 -170 -234 -170 -240 1 -26
29 -100 38 -98 5 1 214 137 463 302 l454 301 -75 -2 c-41 0 -179 -8 -307 -17z"/>
<path d="M9217 6838 c-436 -292 -795 -533 -800 -537 -4 -4 -28 -145 -54 -313
l-47 -307 -234 -207 -234 -207 -342 -162 -341 -162 -373 -68 -374 -68 -264 64
-265 63 -187 242 -187 243 -215 -5 c-525 -11 -1266 -24 -1372 -24 l-116 0 -56
-42 c-40 -31 -133 -141 -321 -378 -146 -184 -265 -338 -265 -341 0 -3 143 39
318 93 875 273 1650 510 1846 563 107 29 121 26 111 -25 -2 -14 -9 -76 -16
-137 l-12 -113 -91 -29 c-91 -29 -1468 -450 -2026 -619 l-295 -89 -21 -39 -22
-39 32 -327 c18 -181 37 -333 43 -339 7 -7 353 193 1207 700 658 391 1201 711
1206 711 12 0 392 -179 401 -188 4 -4 -580 -351 -1298 -772 -718 -421 -1306
-770 -1306 -775 0 -6 209 -117 464 -247 343 -176 472 -237 494 -235 26 2 131
119 873 982 463 539 850 988 860 997 14 15 67 20 345 38 181 12 332 20 336 18
4 -2 -121 -176 -279 -388 -1081 -1449 -1299 -1745 -1286 -1748 19 -4 1952 217
1974 226 17 7 7 73 -136 950 -85 518 -152 945 -149 948 9 9 867 257 872 252 2
-2 118 -408 257 -901 202 -718 256 -897 268 -894 31 9 1850 880 1850 886 0 4
-515 218 -1145 476 -630 259 -1145 472 -1145 475 0 3 166 103 368 222 l369
217 1134 -408 c977 -352 1137 -407 1154 -396 24 14 749 1014 741 1022 -3 3
-675 -28 -1493 -69 -818 -42 -1490 -74 -1492 -72 -6 6 216 378 230 386 8 4
637 59 1399 123 762 64 1402 118 1422 121 21 3 39 13 43 22 3 9 -44 138 -115
313 -111 270 -125 298 -153 314 l-32 17 -1289 -417 c-1070 -347 -1290 -415
-1300 -404 -19 21 -156 238 -156 247 0 4 542 178 1204 387 663 209 1202 383
1198 386 -18 17 -823 302 -870 309 l-53 7 -792 -529z"/>
<path d="M8563 7343 c-16 -3 -55 -51 -128 -159 -58 -85 -105 -161 -105 -169 0
-7 5 -26 10 -41 10 -26 15 -21 155 167 79 107 144 197 145 202 0 7 -38 7 -77
0z"/>
<path d="M8321 7319 c-41 -5 -76 -11 -78 -13 -5 -5 60 -216 67 -216 6 0 160
225 160 234 0 8 -56 6 -149 -5z"/>
<path d="M9810 6641 c-652 -207 -1192 -379 -1200 -382 -11 -4 0 -27 44 -96 33
-50 64 -90 70 -87 6 2 569 184 1251 404 681 221 1241 402 1242 404 3 3 -217
137 -220 135 -1 -1 -535 -171 -1187 -378z"/>
<path d="M4728 6828 c-19 -35 -48 -97 -64 -138 -26 -69 -28 -86 -29 -210 l0
-135 37 -75 c63 -128 46 -125 204 -29 75 47 136 89 136 94 -3 18 -237 555
-242 555 -3 0 -22 -28 -42 -62z"/>
<path d="M8327 6377 l-47 -112 -219 -204 -219 -203 -439 -194 -439 -193 -359
-67 -360 -67 -270 48 -270 47 -75 47 c-41 26 -101 65 -133 85 -40 25 -55 32
-48 19 5 -10 113 -151 239 -313 l229 -295 239 -57 c131 -32 250 -58 264 -58
14 0 186 29 382 65 l357 65 332 158 332 157 223 198 c160 142 224 205 228 225
22 104 106 694 104 724 -3 34 -6 28 -51 -75z"/>
<path d="M4719 5992 c-213 -130 -386 -238 -385 -239 4 -5 949 -34 953 -29 5 5
-165 486 -176 498 -3 3 -180 -100 -392 -230z"/>
<path d="M10120 6019 c-756 -65 -1378 -118 -1381 -119 -7 0 -182 -291 -177
-295 4 -2 2867 142 2898 146 23 4 26 12 62 189 20 102 37 188 38 193 0 11 42
14 -1440 -114z"/>
<path d="M4195 5672 l-60 -37 210 -7 c507 -16 1018 -28 1022 -24 2 2 -8 18
-24 35 -32 37 14 33 -608 51 -187 6 -371 12 -410 15 -67 4 -73 3 -130 -33z"/>
<path d="M3978 5518 c-54 -40 -97 -75 -98 -78 0 -3 55 -4 122 -2 68 2 428 9
800 15 l676 12 -35 48 -35 47 -181 0 c-168 0 -641 12 -1002 25 l-150 5 -97
-72z"/>
<path d="M8129 5244 c-173 -102 -317 -188 -321 -192 -9 -9 2198 -916 2229
-917 25 0 629 484 616 495 -4 4 -469 173 -1033 375 -564 202 -1059 380 -1101
396 l-76 28 -314 -185z"/>
<path d="M5295 5228 c-132 -38 -971 -295 -1563 -479 l-594 -184 -54 -114 c-30
-63 -52 -116 -50 -118 4 -5 2241 676 2317 706 25 9 27 15 33 93 4 46 9 91 12
101 7 22 -11 21 -101 -5z"/>
<path d="M7175 4828 c-209 -60 -381 -111 -383 -113 -4 -4 296 -1836 302 -1842
4 -4 976 304 984 312 2 2 -108 397 -244 879 -195 689 -251 876 -263 875 -9 0
-187 -50 -396 -111z"/>
<path d="M4263 4186 c-651 -386 -1185 -705 -1188 -708 -8 -7 135 -230 145
-226 3 2 577 338 1275 748 l1268 745 -149 72 c-82 39 -153 72 -159 72 -5 0
-542 -316 -1192 -703z"/>
<path d="M6223 4691 c-139 -9 -254 -19 -256 -21 -2 -3 -381 -444 -842 -980
-829 -964 -838 -975 -809 -982 28 -7 623 -78 655 -78 9 0 89 99 185 228 93
125 437 587 764 1027 328 440 599 806 603 813 9 14 35 15 -300 -7z"/>
<path d="M2132 6734 c-20 -14 -22 -23 -22 -123 0 -131 7 -141 93 -141 l57 0 0
140 0 140 -53 0 c-31 0 -61 -6 -75 -16z"/>
<path d="M2706 6508 c-20 -29 -20 -34 4 -58 16 -16 33 -20 80 -20 l60 0 0 50
0 50 -64 0 c-56 0 -67 -3 -80 -22z"/>
<path d="M3596 6514 c-9 -8 -16 -24 -16 -34 0 -35 28 -50 91 -50 l59 0 0 50 0
50 -59 0 c-41 0 -65 -5 -75 -16z"/>
</g>
</svg>
